<?xml version="1.0" standalone="no"?>
<!DOCTYPE svg PUBLIC "-//W3C//DTD SVG 20010904//EN"
 "http://www.w3.org/TR/2001/REC-SVG-20010904/DTD/svg10.dtd">
<svg version="1.0" xmlns="http://www.w3.org/2000/svg"
 width="279.000000pt" height="181.000000pt" viewBox="0 0 279.000000 181.000000"
 preserveAspectRatio="xMidYMid meet">

<g transform="translate(0.000000,181.000000) scale(0.100000,-0.100000)"
fill="#000000" stroke="none">
<path d="M1162 1790 c-295 -53 -538 -259 -637 -542 l-27 -77 -67 -21 c-285
-92 -447 -313 -427 -585 19 -268 187 -476 433 -539 55 -15 163 -16 940 -14
l878 3 92 36 c123 48 194 92 269 167 70 69 122 163 151 272 26 99 24 291 -6
395 -32 115 -85 209 -161 286 -116 117 -252 171 -422 168 l-87 -2 -60 91 c-61
90 -135 166 -218 223 -62 43 -196 103 -273 124 -76 20 -299 28 -378 15z m261
-161 c92 -14 197 -52 267 -96 66 -42 160 -131 202 -192 36 -51 42 -42 -79
-109 -43 -23 -98 -60 -122 -81 l-45 -38 54 -61 c47 -53 56 -60 71 -49 151 109
233 149 344 167 139 23 252 -10 349 -101 108 -101 156 -221 156 -394 0 -213
-85 -354 -263 -439 -147 -70 -93 -67 -1028 -64 l-844 3 -58 23 c-85 35 -168
116 -214 210 -37 75 -38 78 -38 191 0 108 2 120 29 175 62 126 177 202 366
240 l65 13 23 88 c70 274 266 461 534 510 93 17 142 18 231 4z"/>
</g>
</svg>
